<svg width="14" height="14" viewBox="0 0 14 14" fill="none" xmlns="http://www.w3.org/2000/svg">
<path d="M7.58991 1.75609C7.91534 1.43065 7.91534 0.903011 7.58991 0.577574C7.26447 0.252137 6.73683 0.252137 6.4114 0.577574L0.581482 6.40749C0.56992 6.41892 0.558691 6.43068 0.547811 6.44277C0.414884 6.59042 0.333984 6.78583 0.333984 7.00014L0.333988 7.00266C0.33431 7.11154 0.355511 7.2155 0.393797 7.31075C0.434473 7.41219 0.495895 7.50725 0.578062 7.58942L6.4114 13.4228C6.73683 13.7482 7.26447 13.7482 7.58991 13.4228C7.91534 13.0973 7.91534 12.5697 7.58991 12.2442L3.17914 7.83348H12.834C13.2942 7.83348 13.6673 7.46038 13.6673 7.00014C13.6673 6.53991 13.2942 6.16681 12.834 6.16681H3.17918L7.58991 1.75609Z" fill="#E84848"/>
</svg>
