<svg width="0" height="0">
<path fill-rule="evenodd" clip-rule="evenodd" d="M0.977,0.474 V0.474 L0.974,0.48 L0.972,0.485 L0.969,0.491 L0.966,0.496 L0.962,0.501 L0.959,0.507 L0.956,0.512 L0.953,0.517 L0.949,0.522 L0.946,0.527 L0.943,0.532 L0.939,0.536 L0.936,0.541 L0.932,0.546 L0.929,0.55 L0.925,0.555 L0.922,0.559 L0.918,0.564 L0.915,0.568 L0.912,0.573 L0.908,0.577 L0.905,0.581 L0.902,0.586 L0.898,0.59 L0.895,0.594 L0.892,0.598 L0.889,0.603 L0.886,0.607 L0.883,0.611 L0.88,0.615 L0.877,0.619 L0.874,0.623 L0.871,0.628 L0.868,0.632 L0.866,0.636 L0.863,0.64 L0.861,0.645 L0.858,0.649 L0.856,0.654 L0.853,0.658 L0.851,0.663 L0.849,0.667 L0.847,0.672 L0.845,0.677 L0.842,0.681 L0.84,0.686 L0.838,0.691 L0.836,0.696 L0.834,0.701 L0.832,0.706 L0.83,0.712 L0.828,0.717 L0.826,0.723 L0.824,0.728 L0.822,0.734 L0.82,0.739 L0.818,0.745 L0.816,0.751 L0.814,0.757 L0.811,0.763 L0.809,0.769 L0.807,0.775 L0.804,0.781 L0.801,0.787 L0.799,0.793 L0.796,0.799 L0.793,0.806 L0.789,0.812 L0.786,0.818 L0.783,0.824 L0.779,0.831 L0.775,0.837 L0.771,0.843 L0.767,0.849 L0.763,0.855 L0.758,0.861 L0.754,0.867 L0.749,0.873 L0.744,0.879 L0.739,0.885 L0.734,0.89 L0.728,0.896 L0.722,0.901 L0.716,0.906 L0.71,0.911 L0.704,0.916 L0.698,0.921 L0.691,0.926 L0.685,0.931 L0.678,0.935 L0.671,0.939 L0.664,0.944 L0.657,0.948 L0.649,0.951 L0.642,0.955 L0.634,0.959 L0.627,0.962 L0.619,0.966 L0.611,0.969 L0.603,0.972 L0.595,0.975 L0.587,0.978 L0.579,0.98 L0.571,0.983 L0.562,0.985 L0.554,0.987 L0.545,0.989 L0.537,0.991 L0.528,0.993 L0.519,0.995 L0.511,0.996 L0.502,0.997 L0.493,0.998 L0.484,0.999 L0.475,1 L0.466,1 L0.457,1 L0.449,1 L0.44,1 L0.431,0.999 L0.422,0.999 L0.413,0.998 L0.404,0.997 L0.396,0.995 L0.387,0.994 L0.378,0.992 L0.37,0.99 L0.361,0.987 L0.353,0.985 L0.345,0.982 L0.337,0.979 L0.329,0.976 L0.321,0.972 L0.313,0.968 L0.305,0.964 L0.298,0.96 L0.29,0.956 L0.283,0.951 L0.276,0.947 L0.269,0.942 L0.263,0.937 L0.256,0.932 L0.25,0.926 L0.244,0.921 L0.238,0.915 L0.232,0.909 L0.226,0.903 L0.221,0.897 L0.216,0.891 L0.211,0.885 L0.206,0.879 L0.201,0.872 L0.197,0.866 L0.192,0.859 L0.188,0.853 L0.184,0.846 L0.181,0.84 L0.177,0.833 L0.173,0.826 L0.17,0.82 L0.167,0.813 L0.164,0.806 L0.161,0.8 L0.158,0.793 L0.156,0.786 L0.153,0.78 L0.151,0.773 L0.149,0.767 L0.147,0.76 L0.145,0.754 L0.143,0.747 L0.141,0.741 L0.139,0.735 L0.137,0.729 L0.136,0.722 L0.134,0.716 L0.132,0.71 L0.131,0.704 L0.129,0.698 L0.128,0.692 L0.127,0.687 L0.125,0.681 L0.124,0.675 L0.122,0.67 L0.121,0.664 L0.119,0.659 L0.118,0.653 L0.116,0.648 L0.115,0.643 L0.113,0.638 L0.111,0.632 L0.109,0.627 L0.107,0.622 L0.105,0.617 L0.103,0.612 L0.101,0.607 L0.099,0.603 L0.097,0.598 L0.095,0.593 L0.092,0.588 L0.09,0.583 L0.087,0.578 L0.084,0.573 L0.082,0.569 L0.079,0.564 L0.076,0.559 L0.073,0.554 L0.07,0.549 L0.068,0.544 L0.065,0.539 L0.062,0.534 L0.059,0.529 L0.056,0.524 L0.053,0.518 L0.049,0.513 L0.046,0.508 L0.044,0.502 L0.041,0.497 L0.038,0.491 L0.035,0.486 L0.032,0.48 L0.029,0.474 L0.027,0.469 L0.024,0.463 L0.022,0.457 L0.019,0.451 L0.017,0.445 L0.015,0.439 L0.013,0.433 L0.011,0.427 L0.009,0.42 L0.008,0.414 L0.006,0.408 L0.005,0.401 L0.004,0.395 L0.003,0.388 L0.002,0.382 L0.001,0.375 L0.001,0.369 L0,0.362 L0,0.356 L0,0.349 L0,0.343 L0,0.336 L0.001,0.329 L0.001,0.323 L0.002,0.316 L0.003,0.31 L0.004,0.303 L0.006,0.296 L0.007,0.29 L0.009,0.283 L0.011,0.277 L0.013,0.27 L0.015,0.264 L0.017,0.257 L0.02,0.251 L0.022,0.244 L0.025,0.238 L0.028,0.232 L0.031,0.226 L0.035,0.219 L0.038,0.213 L0.042,0.207 L0.046,0.201 L0.05,0.196 L0.054,0.19 L0.059,0.184 L0.063,0.179 L0.068,0.173 L0.073,0.168 L0.078,0.162 L0.083,0.157 L0.088,0.152 L0.094,0.147 L0.099,0.142 L0.105,0.137 L0.111,0.133 L0.117,0.128 L0.123,0.123 L0.129,0.119 L0.135,0.115 L0.141,0.11 L0.148,0.106 L0.154,0.102 L0.16,0.098 L0.167,0.094 L0.174,0.09 L0.18,0.086 L0.187,0.083 L0.194,0.079 L0.2,0.075 L0.207,0.072 L0.214,0.068 L0.221,0.065 L0.228,0.061 L0.235,0.058 L0.242,0.055 L0.249,0.051 L0.256,0.048 L0.263,0.045 L0.27,0.042 L0.277,0.039 L0.284,0.036 L0.291,0.033 L0.299,0.03 L0.306,0.027 L0.313,0.024 L0.321,0.022 L0.328,0.019 L0.336,0.017 L0.343,0.014 L0.351,0.012 L0.359,0.01 L0.367,0.008 L0.374,0.006 L0.382,0.005 L0.39,0.004 L0.398,0.002 L0.406,0.002 L0.414,0.001 L0.422,0 L0.43,0 L0.439,0 L0.447,0.001 L0.455,0.001 L0.463,0.002 L0.471,0.003 L0.479,0.005 L0.487,0.006 L0.495,0.008 L0.503,0.011 L0.511,0.013 L0.518,0.016 L0.526,0.019 L0.533,0.022 L0.541,0.025 L0.548,0.029 L0.555,0.033 L0.562,0.037 L0.569,0.041 L0.576,0.046 L0.582,0.05 L0.589,0.055 L0.595,0.059 L0.601,0.064 L0.607,0.069 L0.613,0.074 L0.619,0.079 L0.624,0.084 L0.63,0.089 L0.635,0.094 L0.64,0.099 L0.645,0.104 L0.65,0.109 L0.655,0.114 L0.66,0.119 L0.664,0.124 L0.669,0.128 L0.673,0.133 L0.678,0.137 L0.682,0.141 L0.687,0.146 L0.691,0.15 L0.696,0.153 L0.7,0.157 L0.705,0.161 L0.709,0.164 L0.714,0.167 L0.719,0.17 L0.723,0.173 L0.728,0.176 L0.733,0.179 L0.738,0.181 L0.743,0.184 L0.749,0.186 L0.754,0.188 L0.76,0.19 L0.765,0.192 L0.771,0.194 L0.777,0.196 L0.783,0.198 L0.789,0.2 L0.795,0.202 L0.802,0.203 L0.808,0.205 L0.815,0.207 L0.821,0.209 L0.828,0.211 L0.834,0.213 L0.841,0.215 L0.848,0.217 L0.855,0.219 L0.861,0.221 L0.868,0.224 L0.875,0.226 L0.882,0.229 L0.888,0.232 L0.895,0.235 L0.901,0.238 L0.907,0.241 L0.913,0.245 L0.919,0.248 L0.925,0.252 L0.931,0.256 L0.936,0.26 L0.942,0.265 L0.947,0.269 L0.952,0.273 L0.956,0.278 L0.961,0.283 L0.965,0.288 L0.969,0.293 L0.973,0.298 L0.977,0.303 L0.98,0.309 L0.983,0.314 L0.986,0.32 L0.988,0.326 L0.991,0.331 L0.993,0.337 L0.994,0.343 L0.996,0.349 L0.997,0.355 L0.998,0.361 L0.999,0.367 L1,0.373 L1,0.379 L1,0.385 L1,0.392 L0.999,0.398 L0.999,0.404 L0.998,0.41 L0.997,0.416 L0.996,0.422 L0.994,0.428 L0.993,0.434 L0.991,0.44 L0.989,0.446 L0.987,0.452 L0.985,0.457 L0.982,0.463 L0.98,0.469 L0.977,0.474" />
</svg>
