<svg width="0" height="0">
<path fill-rule="evenodd" clip-rule="evenodd" d="M0.998,0.43 V0.43 L0.999,0.436 L0.999,0.442 L1,0.448 L1,0.454 L1,0.46 L1,0.466 L1,0.472 L0.999,0.478 L0.999,0.484 L0.998,0.491 L0.998,0.497 L0.997,0.503 L0.996,0.509 L0.995,0.515 L0.993,0.521 L0.992,0.527 L0.99,0.532 L0.989,0.538 L0.987,0.544 L0.985,0.55 L0.983,0.556 L0.981,0.562 L0.979,0.567 L0.977,0.573 L0.974,0.579 L0.972,0.584 L0.969,0.59 L0.967,0.596 L0.964,0.601 L0.961,0.607 L0.958,0.612 L0.955,0.618 L0.952,0.623 L0.949,0.628 L0.946,0.634 L0.943,0.639 L0.94,0.644 L0.937,0.649 L0.933,0.655 L0.93,0.66 L0.927,0.665 L0.923,0.67 L0.92,0.675 L0.916,0.68 L0.913,0.685 L0.909,0.69 L0.906,0.695 L0.902,0.7 L0.899,0.705 L0.895,0.71 L0.891,0.715 L0.888,0.72 L0.884,0.725 L0.88,0.73 L0.877,0.735 L0.873,0.74 L0.869,0.744 L0.865,0.749 L0.862,0.754 L0.858,0.759 L0.854,0.764 L0.85,0.768 L0.846,0.773 L0.842,0.778 L0.838,0.783 L0.834,0.787 L0.83,0.792 L0.826,0.797 L0.822,0.802 L0.818,0.806 L0.814,0.811 L0.81,0.816 L0.806,0.82 L0.802,0.825 L0.797,0.83 L0.793,0.834 L0.789,0.839 L0.784,0.844 L0.78,0.848 L0.776,0.853 L0.771,0.857 L0.766,0.862 L0.762,0.866 L0.757,0.871 L0.752,0.875 L0.748,0.88 L0.743,0.884 L0.738,0.888 L0.733,0.893 L0.728,0.897 L0.723,0.901 L0.718,0.905 L0.712,0.909 L0.707,0.913 L0.702,0.917 L0.696,0.921 L0.691,0.925 L0.685,0.929 L0.68,0.933 L0.674,0.937 L0.668,0.94 L0.663,0.944 L0.657,0.947 L0.651,0.951 L0.645,0.954 L0.639,0.957 L0.633,0.96 L0.626,0.963 L0.62,0.966 L0.614,0.969 L0.607,0.972 L0.601,0.975 L0.595,0.977 L0.588,0.98 L0.581,0.982 L0.575,0.984 L0.568,0.986 L0.561,0.988 L0.555,0.99 L0.548,0.991 L0.541,0.993 L0.534,0.994 L0.527,0.996 L0.52,0.997 L0.513,0.998 L0.506,0.998 L0.499,0.999 L0.492,1 L0.485,1 L0.478,1 L0.471,1 L0.464,1 L0.457,1 L0.45,0.999 L0.442,0.999 L0.435,0.998 L0.428,0.997 L0.421,0.996 L0.414,0.995 L0.407,0.994 L0.4,0.992 L0.394,0.991 L0.387,0.989 L0.38,0.987 L0.373,0.985 L0.366,0.983 L0.36,0.981 L0.353,0.978 L0.347,0.976 L0.34,0.973 L0.334,0.97 L0.327,0.967 L0.321,0.964 L0.315,0.961 L0.309,0.958 L0.303,0.955 L0.297,0.951 L0.291,0.948 L0.285,0.944 L0.279,0.94 L0.274,0.936 L0.268,0.932 L0.263,0.928 L0.258,0.924 L0.252,0.92 L0.247,0.916 L0.242,0.912 L0.237,0.908 L0.232,0.903 L0.227,0.899 L0.223,0.895 L0.218,0.89 L0.213,0.886 L0.209,0.881 L0.204,0.877 L0.2,0.872 L0.196,0.868 L0.192,0.863 L0.188,0.859 L0.184,0.854 L0.18,0.85 L0.176,0.846 L0.172,0.841 L0.168,0.837 L0.165,0.832 L0.161,0.828 L0.157,0.824 L0.154,0.819 L0.15,0.815 L0.147,0.811 L0.143,0.807 L0.14,0.803 L0.137,0.799 L0.133,0.794 L0.13,0.79 L0.127,0.786 L0.124,0.783 L0.12,0.779 L0.117,0.775 L0.114,0.771 L0.111,0.767 L0.108,0.764 L0.105,0.76 L0.102,0.756 L0.098,0.753 L0.095,0.749 L0.092,0.745 L0.089,0.742 L0.086,0.738 L0.083,0.735 L0.08,0.731 L0.077,0.728 L0.074,0.724 L0.071,0.721 L0.068,0.717 L0.065,0.714 L0.062,0.71 L0.06,0.707 L0.057,0.703 L0.054,0.7 L0.051,0.696 L0.048,0.693 L0.046,0.689 L0.043,0.686 L0.041,0.682 L0.038,0.678 L0.036,0.675 L0.033,0.671 L0.031,0.667 L0.029,0.664 L0.026,0.66 L0.024,0.656 L0.022,0.652 L0.02,0.649 L0.018,0.645 L0.016,0.641 L0.015,0.637 L0.013,0.633 L0.011,0.629 L0.01,0.625 L0.009,0.621 L0.007,0.617 L0.006,0.613 L0.005,0.609 L0.004,0.604 L0.003,0.6 L0.003,0.596 L0.002,0.592 L0.001,0.588 L0.001,0.584 L0.001,0.579 L0,0.575 L0,0.571 L0,0.567 L0,0.563 L0,0.558 L0,0.554 L0.001,0.55 L0.001,0.546 L0.001,0.542 L0.002,0.537 L0.003,0.533 L0.003,0.529 L0.004,0.525 L0.005,0.521 L0.006,0.517 L0.007,0.513 L0.008,0.509 L0.009,0.505 L0.01,0.501 L0.011,0.497 L0.013,0.493 L0.014,0.49 L0.015,0.486 L0.017,0.482 L0.018,0.478 L0.02,0.475 L0.021,0.471 L0.023,0.467 L0.024,0.464 L0.026,0.46 L0.027,0.457 L0.029,0.453 L0.03,0.45 L0.032,0.446 L0.034,0.443 L0.035,0.44 L0.037,0.436 L0.038,0.433 L0.04,0.43 L0.042,0.427 L0.043,0.423 L0.045,0.42 L0.046,0.417 L0.048,0.414 L0.049,0.411 L0.051,0.408 L0.052,0.405 L0.054,0.402 L0.055,0.399 L0.056,0.396 L0.058,0.393 L0.059,0.39 L0.06,0.387 L0.061,0.384 L0.062,0.381 L0.063,0.378 L0.064,0.375 L0.066,0.372 L0.066,0.369 L0.067,0.367 L0.068,0.364 L0.069,0.361 L0.07,0.358 L0.071,0.355 L0.071,0.352 L0.072,0.349 L0.073,0.346 L0.073,0.343 L0.074,0.34 L0.074,0.337 L0.074,0.333 L0.075,0.33 L0.075,0.327 L0.075,0.324 L0.076,0.321 L0.076,0.317 L0.076,0.314 L0.076,0.311 L0.077,0.307 L0.077,0.304 L0.077,0.3 L0.077,0.297 L0.077,0.293 L0.077,0.29 L0.077,0.286 L0.077,0.282 L0.077,0.279 L0.077,0.275 L0.077,0.271 L0.078,0.267 L0.078,0.263 L0.078,0.259 L0.078,0.255 L0.078,0.251 L0.078,0.247 L0.079,0.243 L0.079,0.239 L0.079,0.235 L0.08,0.23 L0.08,0.226 L0.08,0.222 L0.081,0.218 L0.082,0.213 L0.082,0.209 L0.083,0.205 L0.084,0.2 L0.084,0.196 L0.085,0.192 L0.086,0.187 L0.087,0.183 L0.089,0.178 L0.09,0.174 L0.091,0.17 L0.093,0.165 L0.094,0.161 L0.096,0.157 L0.097,0.152 L0.099,0.148 L0.101,0.144 L0.103,0.14 L0.105,0.135 L0.107,0.131 L0.11,0.127 L0.112,0.123 L0.114,0.119 L0.117,0.115 L0.12,0.111 L0.123,0.107 L0.125,0.103 L0.128,0.1 L0.131,0.096 L0.135,0.092 L0.138,0.089 L0.141,0.086 L0.145,0.082 L0.148,0.079 L0.152,0.076 L0.155,0.072 L0.159,0.069 L0.163,0.066 L0.167,0.064 L0.171,0.061 L0.175,0.058 L0.179,0.055 L0.183,0.053 L0.188,0.05 L0.192,0.048 L0.196,0.046 L0.201,0.043 L0.205,0.041 L0.21,0.039 L0.214,0.037 L0.219,0.035 L0.224,0.034 L0.228,0.032 L0.233,0.03 L0.238,0.029 L0.243,0.027 L0.248,0.026 L0.252,0.024 L0.257,0.023 L0.262,0.022 L0.267,0.021 L0.272,0.019 L0.277,0.018 L0.282,0.017 L0.287,0.016 L0.292,0.015 L0.297,0.014 L0.302,0.014 L0.307,0.013 L0.312,0.012 L0.317,0.011 L0.322,0.011 L0.327,0.01 L0.332,0.009 L0.337,0.009 L0.342,0.008 L0.347,0.007 L0.353,0.007 L0.358,0.006 L0.363,0.006 L0.368,0.005 L0.373,0.005 L0.378,0.004 L0.383,0.004 L0.389,0.003 L0.394,0.003 L0.399,0.003 L0.404,0.002 L0.41,0.002 L0.415,0.002 L0.42,0.001 L0.425,0.001 L0.431,0.001 L0.436,0.001 L0.441,0.001 L0.447,0 L0.452,0 L0.457,0 L0.463,0 L0.468,0 L0.474,0 L0.479,0 L0.484,0 L0.49,0.001 L0.495,0.001 L0.501,0.001 L0.506,0.002 L0.512,0.002 L0.517,0.002 L0.523,0.003 L0.528,0.003 L0.534,0.004 L0.539,0.005 L0.545,0.006 L0.55,0.006 L0.556,0.007 L0.561,0.008 L0.567,0.009 L0.572,0.01 L0.578,0.011 L0.583,0.013 L0.589,0.014 L0.594,0.015 L0.599,0.017 L0.605,0.018 L0.61,0.02 L0.615,0.022 L0.621,0.024 L0.626,0.025 L0.631,0.027 L0.636,0.029 L0.642,0.031 L0.647,0.034 L0.652,0.036 L0.657,0.038 L0.662,0.04 L0.667,0.043 L0.672,0.045 L0.677,0.048 L0.682,0.051 L0.686,0.053 L0.691,0.056 L0.696,0.059 L0.701,0.062 L0.705,0.065 L0.71,0.068 L0.715,0.071 L0.719,0.074 L0.724,0.077 L0.728,0.08 L0.733,0.083 L0.737,0.087 L0.741,0.09 L0.746,0.093 L0.75,0.097 L0.754,0.1 L0.759,0.104 L0.763,0.107 L0.767,0.111 L0.771,0.114 L0.776,0.118 L0.78,0.121 L0.784,0.125 L0.788,0.129 L0.792,0.132 L0.796,0.136 L0.801,0.14 L0.805,0.143 L0.809,0.147 L0.813,0.151 L0.817,0.155 L0.821,0.158 L0.825,0.162 L0.829,0.166 L0.834,0.17 L0.838,0.174 L0.842,0.178 L0.846,0.182 L0.85,0.186 L0.854,0.19 L0.858,0.194 L0.862,0.198 L0.867,0.202 L0.871,0.206 L0.875,0.211 L0.879,0.215 L0.883,0.219 L0.887,0.223 L0.891,0.228 L0.895,0.232 L0.899,0.237 L0.903,0.241 L0.907,0.246 L0.911,0.25 L0.915,0.255 L0.919,0.26 L0.923,0.264 L0.926,0.269 L0.93,0.274 L0.934,0.279 L0.937,0.284 L0.941,0.289 L0.944,0.294 L0.948,0.299 L0.951,0.304 L0.954,0.31 L0.958,0.315 L0.961,0.32 L0.964,0.326 L0.967,0.331 L0.969,0.337 L0.972,0.342 L0.975,0.348 L0.977,0.353 L0.979,0.359 L0.982,0.365 L0.984,0.37 L0.986,0.376 L0.988,0.382 L0.99,0.388 L0.991,0.394 L0.993,0.4 L0.994,0.406 L0.995,0.412 L0.996,0.418 L0.997,0.424 L0.998,0.43" />
</svg>
