<svg width="0" height="0">
<path fill-rule="evenodd" clip-rule="evenodd" d="M1,0.468 L1,0.474 L1,0.48 L1,0.485 L1,0.491 L0.999,0.497 L0.999,0.502 L0.998,0.508 L0.998,0.514 L0.997,0.519 L0.997,0.525 L0.996,0.531 L0.995,0.536 L0.994,0.542 L0.993,0.547 L0.992,0.553 L0.991,0.558 L0.99,0.564 L0.988,0.569 L0.987,0.575 L0.986,0.58 L0.984,0.586 L0.983,0.591 L0.982,0.596 L0.98,0.602 L0.979,0.607 L0.977,0.612 L0.976,0.618 L0.974,0.623 L0.972,0.628 L0.971,0.634 L0.969,0.639 L0.968,0.644 L0.966,0.65 L0.965,0.655 L0.963,0.66 L0.961,0.666 L0.96,0.671 L0.958,0.676 L0.957,0.682 L0.955,0.687 L0.953,0.693 L0.952,0.698 L0.95,0.703 L0.949,0.709 L0.947,0.714 L0.945,0.72 L0.944,0.726 L0.942,0.731 L0.94,0.737 L0.939,0.742 L0.937,0.748 L0.935,0.754 L0.934,0.759 L0.932,0.765 L0.93,0.771 L0.928,0.777 L0.926,0.782 L0.925,0.788 L0.923,0.794 L0.921,0.8 L0.919,0.806 L0.916,0.811 L0.914,0.817 L0.912,0.823 L0.91,0.829 L0.907,0.835 L0.905,0.84 L0.902,0.846 L0.9,0.852 L0.897,0.857 L0.894,0.863 L0.891,0.869 L0.888,0.874 L0.885,0.88 L0.882,0.885 L0.879,0.89 L0.875,0.896 L0.872,0.901 L0.868,0.906 L0.865,0.911 L0.861,0.916 L0.857,0.92 L0.853,0.925 L0.849,0.93 L0.845,0.934 L0.841,0.938 L0.837,0.942 L0.832,0.947 L0.828,0.95 L0.823,0.954 L0.818,0.958 L0.814,0.961 L0.809,0.965 L0.804,0.968 L0.799,0.971 L0.794,0.974 L0.789,0.976 L0.784,0.979 L0.778,0.981 L0.773,0.983 L0.768,0.986 L0.762,0.987 L0.757,0.989 L0.752,0.991 L0.746,0.992 L0.741,0.994 L0.735,0.995 L0.73,0.996 L0.724,0.997 L0.718,0.998 L0.713,0.998 L0.707,0.999 L0.702,0.999 L0.696,1 L0.69,1 L0.685,1 L0.679,1 L0.674,1 L0.668,1 L0.663,1 L0.657,1 L0.652,0.999 L0.646,0.999 L0.641,0.999 L0.635,0.998 L0.63,0.998 L0.625,0.997 L0.619,0.997 L0.614,0.996 L0.609,0.996 L0.603,0.995 L0.598,0.995 L0.593,0.994 L0.588,0.994 L0.582,0.993 L0.577,0.993 L0.572,0.992 L0.567,0.992 L0.562,0.991 L0.557,0.991 L0.551,0.99 L0.546,0.99 L0.541,0.99 L0.536,0.989 L0.531,0.989 L0.525,0.989 L0.52,0.989 L0.515,0.988 L0.51,0.988 L0.505,0.988 L0.499,0.988 L0.494,0.988 L0.489,0.987 L0.484,0.987 L0.478,0.987 L0.473,0.987 L0.467,0.987 L0.462,0.987 L0.457,0.987 L0.451,0.987 L0.446,0.987 L0.44,0.987 L0.434,0.987 L0.429,0.987 L0.423,0.986 L0.418,0.986 L0.412,0.986 L0.406,0.986 L0.4,0.986 L0.394,0.985 L0.389,0.985 L0.383,0.985 L0.377,0.984 L0.371,0.984 L0.365,0.983 L0.359,0.982 L0.353,0.982 L0.347,0.981 L0.341,0.98 L0.335,0.979 L0.329,0.978 L0.323,0.977 L0.317,0.976 L0.311,0.974 L0.304,0.973 L0.298,0.971 L0.292,0.97 L0.286,0.968 L0.28,0.966 L0.274,0.964 L0.268,0.962 L0.262,0.96 L0.256,0.957 L0.25,0.955 L0.244,0.952 L0.238,0.949 L0.233,0.946 L0.227,0.943 L0.221,0.94 L0.215,0.937 L0.21,0.934 L0.204,0.93 L0.198,0.926 L0.193,0.923 L0.187,0.919 L0.182,0.915 L0.176,0.911 L0.171,0.907 L0.166,0.902 L0.16,0.898 L0.155,0.893 L0.15,0.889 L0.145,0.884 L0.14,0.879 L0.135,0.874 L0.13,0.869 L0.125,0.864 L0.121,0.859 L0.116,0.854 L0.111,0.848 L0.107,0.843 L0.102,0.837 L0.098,0.832 L0.093,0.826 L0.089,0.82 L0.085,0.814 L0.081,0.808 L0.077,0.802 L0.073,0.796 L0.069,0.79 L0.065,0.784 L0.061,0.777 L0.058,0.771 L0.054,0.764 L0.051,0.758 L0.047,0.751 L0.044,0.744 L0.041,0.738 L0.038,0.731 L0.035,0.724 L0.032,0.717 L0.03,0.71 L0.027,0.702 L0.025,0.695 L0.022,0.688 L0.02,0.681 L0.018,0.673 L0.016,0.666 L0.014,0.659 L0.012,0.651 L0.011,0.644 L0.009,0.636 L0.008,0.629 L0.007,0.621 L0.005,0.614 L0.004,0.606 L0.003,0.598 L0.003,0.591 L0.002,0.583 L0.001,0.575 L0.001,0.568 L0.001,0.56 L0,0.552 L0,0.545 L0,0.537 L0,0.529 L0,0.522 L0,0.514 L0.001,0.506 L0.001,0.499 L0.002,0.491 L0.002,0.484 L0.003,0.476 L0.004,0.468 L0.005,0.461 L0.006,0.453 L0.007,0.446 L0.008,0.438 L0.009,0.431 L0.01,0.424 L0.012,0.416 L0.013,0.409 L0.015,0.402 L0.017,0.394 L0.018,0.387 L0.02,0.38 L0.022,0.373 L0.024,0.366 L0.026,0.359 L0.028,0.352 L0.03,0.345 L0.032,0.338 L0.035,0.331 L0.037,0.324 L0.039,0.317 L0.042,0.31 L0.044,0.304 L0.047,0.297 L0.049,0.29 L0.052,0.284 L0.055,0.277 L0.058,0.271 L0.061,0.264 L0.064,0.258 L0.067,0.251 L0.07,0.245 L0.073,0.239 L0.076,0.233 L0.079,0.226 L0.082,0.22 L0.086,0.214 L0.089,0.208 L0.093,0.202 L0.096,0.196 L0.1,0.191 L0.103,0.185 L0.107,0.179 L0.111,0.174 L0.114,0.168 L0.118,0.163 L0.122,0.157 L0.126,0.152 L0.13,0.147 L0.134,0.141 L0.138,0.136 L0.142,0.131 L0.147,0.126 L0.151,0.121 L0.155,0.116 L0.16,0.112 L0.164,0.107 L0.168,0.102 L0.173,0.098 L0.178,0.093 L0.182,0.089 L0.187,0.085 L0.192,0.08 L0.196,0.076 L0.201,0.072 L0.206,0.068 L0.211,0.065 L0.216,0.061 L0.221,0.057 L0.226,0.054 L0.231,0.05 L0.236,0.047 L0.241,0.044 L0.246,0.041 L0.252,0.038 L0.257,0.035 L0.262,0.032 L0.268,0.03 L0.273,0.027 L0.278,0.025 L0.284,0.023 L0.289,0.02 L0.295,0.018 L0.3,0.016 L0.306,0.015 L0.311,0.013 L0.317,0.011 L0.323,0.01 L0.328,0.008 L0.334,0.007 L0.339,0.006 L0.345,0.005 L0.351,0.004 L0.356,0.003 L0.362,0.003 L0.367,0.002 L0.373,0.001 L0.378,0.001 L0.384,0.001 L0.389,0 L0.395,0 L0.4,0 L0.406,0 L0.411,0 L0.417,0.001 L0.422,0.001 L0.427,0.001 L0.433,0.002 L0.438,0.002 L0.443,0.003 L0.449,0.004 L0.454,0.005 L0.459,0.005 L0.464,0.006 L0.469,0.008 L0.475,0.009 L0.48,0.01 L0.485,0.011 L0.49,0.013 L0.495,0.014 L0.499,0.016 L0.504,0.017 L0.509,0.019 L0.514,0.021 L0.519,0.023 L0.523,0.025 L0.528,0.027 L0.533,0.029 L0.537,0.031 L0.542,0.033 L0.546,0.035 L0.551,0.038 L0.555,0.04 L0.559,0.043 L0.564,0.045 L0.568,0.048 L0.572,0.05 L0.576,0.053 L0.58,0.055 L0.584,0.058 L0.588,0.061 L0.592,0.063 L0.596,0.066 L0.6,0.069 L0.604,0.071 L0.607,0.074 L0.611,0.077 L0.615,0.08 L0.618,0.082 L0.622,0.085 L0.625,0.088 L0.629,0.09 L0.632,0.093 L0.636,0.095 L0.639,0.098 L0.642,0.1 L0.646,0.103 L0.649,0.105 L0.652,0.108 L0.656,0.11 L0.659,0.113 L0.662,0.115 L0.665,0.117 L0.669,0.119 L0.672,0.122 L0.675,0.124 L0.678,0.126 L0.681,0.128 L0.684,0.13 L0.688,0.132 L0.691,0.134 L0.694,0.136 L0.697,0.138 L0.7,0.14 L0.704,0.141 L0.707,0.143 L0.71,0.145 L0.713,0.147 L0.717,0.149 L0.72,0.15 L0.723,0.152 L0.726,0.154 L0.73,0.155 L0.733,0.157 L0.736,0.159 L0.74,0.16 L0.743,0.162 L0.747,0.163 L0.75,0.165 L0.753,0.167 L0.757,0.168 L0.76,0.17 L0.764,0.171 L0.768,0.173 L0.771,0.175 L0.775,0.176 L0.778,0.178 L0.782,0.18 L0.786,0.181 L0.789,0.183 L0.793,0.185 L0.797,0.187 L0.801,0.188 L0.804,0.19 L0.808,0.192 L0.812,0.194 L0.816,0.196 L0.82,0.198 L0.823,0.2 L0.827,0.202 L0.831,0.204 L0.835,0.206 L0.839,0.209 L0.843,0.211 L0.847,0.213 L0.851,0.216 L0.854,0.218 L0.858,0.221 L0.862,0.223 L0.866,0.226 L0.87,0.229 L0.874,0.231 L0.878,0.234 L0.882,0.237 L0.885,0.24 L0.889,0.243 L0.893,0.246 L0.897,0.25 L0.901,0.253 L0.904,0.256 L0.908,0.26 L0.912,0.263 L0.915,0.267 L0.919,0.27 L0.922,0.274 L0.926,0.278 L0.929,0.282 L0.933,0.286 L0.936,0.29 L0.939,0.294 L0.942,0.298 L0.946,0.302 L0.949,0.307 L0.952,0.311 L0.955,0.316 L0.957,0.32 L0.96,0.325 L0.963,0.329 L0.966,0.334 L0.968,0.339 L0.971,0.344 L0.973,0.349 L0.975,0.354 L0.977,0.359 L0.979,0.364 L0.981,0.369 L0.983,0.374 L0.985,0.38 L0.987,0.385 L0.988,0.39 L0.99,0.396 L0.991,0.401 L0.993,0.407 L0.994,0.412 L0.995,0.418 L0.996,0.423 L0.997,0.429 L0.997,0.434 L0.998,0.44 L0.999,0.446 L0.999,0.451 L1,0.457 L1,0.463 L1,0.468" />
</svg>
