<svg width="0" height="0">
<path fill-rule="evenodd" clip-rule="evenodd" d="M0.503,0.084 L0.507,0.086 L0.51,0.088 L0.514,0.089 L0.518,0.091 L0.521,0.092 L0.525,0.094 L0.528,0.095 L0.532,0.096 L0.535,0.097 L0.539,0.098 L0.542,0.099 L0.546,0.1 L0.549,0.101 L0.553,0.101 L0.556,0.102 L0.56,0.102 L0.563,0.103 L0.567,0.103 L0.57,0.104 L0.574,0.104 L0.577,0.104 L0.581,0.105 L0.585,0.105 L0.588,0.105 L0.592,0.106 L0.596,0.106 L0.599,0.106 L0.603,0.107 L0.607,0.107 L0.61,0.107 L0.614,0.108 L0.618,0.109 L0.621,0.109 L0.625,0.11 L0.629,0.111 L0.632,0.112 L0.636,0.113 L0.64,0.114 L0.643,0.115 L0.647,0.116 L0.65,0.117 L0.654,0.119 L0.657,0.12 L0.661,0.122 L0.664,0.124 L0.668,0.126 L0.671,0.128 L0.674,0.13 L0.677,0.132 L0.68,0.134 L0.683,0.137 L0.686,0.139 L0.689,0.142 L0.692,0.145 L0.695,0.147 L0.698,0.15 L0.7,0.153 L0.703,0.156 L0.706,0.159 L0.708,0.162 L0.711,0.165 L0.713,0.169 L0.715,0.172 L0.717,0.175 L0.72,0.179 L0.722,0.182 L0.724,0.186 L0.726,0.189 L0.728,0.193 L0.73,0.196 L0.732,0.2 L0.733,0.203 L0.735,0.207 L0.737,0.21 L0.739,0.214 L0.74,0.218 L0.742,0.221 L0.744,0.225 L0.745,0.228 L0.747,0.232 L0.748,0.236 L0.75,0.239 L0.752,0.243 L0.753,0.246 L0.755,0.25 L0.756,0.253 L0.758,0.257 L0.759,0.26 L0.761,0.263 L0.763,0.267 L0.764,0.27 L0.766,0.273 L0.768,0.277 L0.769,0.28 L0.771,0.283 L0.773,0.287 L0.775,0.29 L0.776,0.293 L0.778,0.296 L0.78,0.299 L0.782,0.303 L0.784,0.306 L0.786,0.309 L0.788,0.312 L0.79,0.315 L0.792,0.319 L0.795,0.322 L0.797,0.325 L0.799,0.328 L0.802,0.331 L0.804,0.335 L0.806,0.338 L0.809,0.341 L0.811,0.344 L0.814,0.347 L0.817,0.351 L0.82,0.354 L0.822,0.357 L0.825,0.361 L0.828,0.364 L0.831,0.368 L0.834,0.371 L0.837,0.375 L0.84,0.378 L0.844,0.382 L0.847,0.386 L0.85,0.389 L0.853,0.393 L0.857,0.397 L0.86,0.401 L0.864,0.405 L0.867,0.409 L0.871,0.413 L0.875,0.417 L0.878,0.422 L0.882,0.426 L0.885,0.43 L0.889,0.435 L0.893,0.439 L0.897,0.444 L0.9,0.449 L0.904,0.454 L0.908,0.459 L0.912,0.464 L0.915,0.469 L0.919,0.474 L0.923,0.48 L0.927,0.485 L0.93,0.491 L0.934,0.496 L0.937,0.502 L0.941,0.508 L0.944,0.514 L0.948,0.52 L0.951,0.526 L0.954,0.532 L0.958,0.538 L0.961,0.545 L0.964,0.551 L0.967,0.558 L0.97,0.565 L0.973,0.571 L0.975,0.578 L0.978,0.585 L0.98,0.592 L0.983,0.599 L0.985,0.606 L0.987,0.613 L0.989,0.62 L0.991,0.627 L0.992,0.635 L0.994,0.642 L0.995,0.649 L0.997,0.657 L0.998,0.664 L0.999,0.671 L1,0.679 L1,0.686 L1,0.694 L1,0.701 L1,0.709 L1,0.716 L1,0.724 L1,0.731 L1,0.739 L1,0.746 L0.999,0.754 L0.998,0.761 L0.997,0.768 L0.996,0.776 L0.995,0.783 L0.993,0.79 L0.991,0.797 L0.989,0.804 L0.987,0.811 L0.985,0.818 L0.983,0.825 L0.98,0.832 L0.977,0.839 L0.975,0.845 L0.972,0.852 L0.968,0.858 L0.965,0.864 L0.962,0.871 L0.958,0.877 L0.954,0.883 L0.95,0.889 L0.946,0.895 L0.942,0.9 L0.938,0.906 L0.934,0.911 L0.929,0.916 L0.924,0.922 L0.92,0.927 L0.915,0.931 L0.91,0.936 L0.904,0.941 L0.899,0.945 L0.894,0.949 L0.888,0.953 L0.883,0.957 L0.877,0.961 L0.871,0.965 L0.865,0.968 L0.86,0.971 L0.854,0.974 L0.847,0.977 L0.841,0.98 L0.835,0.982 L0.829,0.985 L0.823,0.987 L0.816,0.989 L0.81,0.991 L0.803,0.993 L0.797,0.994 L0.79,0.996 L0.784,0.997 L0.777,0.998 L0.771,0.999 L0.764,1 L0.757,1 L0.751,1 L0.744,1 L0.738,1 L0.731,1 L0.725,1 L0.718,1 L0.711,1 L0.705,1 L0.699,1 L0.692,1 L0.686,0.999 L0.679,0.998 L0.673,0.997 L0.667,0.997 L0.66,0.996 L0.654,0.995 L0.648,0.993 L0.642,0.992 L0.636,0.991 L0.63,0.99 L0.624,0.989 L0.618,0.987 L0.612,0.986 L0.607,0.985 L0.601,0.983 L0.595,0.982 L0.59,0.98 L0.584,0.979 L0.578,0.978 L0.573,0.976 L0.568,0.975 L0.562,0.974 L0.557,0.973 L0.551,0.971 L0.546,0.97 L0.541,0.969 L0.536,0.968 L0.531,0.967 L0.525,0.966 L0.52,0.965 L0.515,0.964 L0.51,0.963 L0.505,0.962 L0.5,0.962 L0.495,0.961 L0.49,0.96 L0.485,0.96 L0.48,0.959 L0.475,0.959 L0.47,0.958 L0.465,0.958 L0.46,0.958 L0.455,0.957 L0.45,0.957 L0.445,0.957 L0.44,0.957 L0.435,0.957 L0.43,0.956 L0.425,0.956 L0.42,0.956 L0.415,0.956 L0.409,0.956 L0.404,0.957 L0.399,0.957 L0.394,0.957 L0.388,0.957 L0.383,0.957 L0.377,0.957 L0.372,0.957 L0.367,0.957 L0.361,0.958 L0.356,0.958 L0.35,0.958 L0.344,0.958 L0.339,0.958 L0.333,0.958 L0.327,0.958 L0.321,0.958 L0.316,0.958 L0.31,0.958 L0.304,0.958 L0.298,0.957 L0.292,0.957 L0.286,0.957 L0.28,0.956 L0.274,0.956 L0.268,0.955 L0.262,0.954 L0.256,0.954 L0.25,0.953 L0.244,0.952 L0.238,0.951 L0.232,0.949 L0.226,0.948 L0.22,0.947 L0.214,0.945 L0.208,0.944 L0.202,0.942 L0.195,0.94 L0.189,0.938 L0.184,0.936 L0.178,0.934 L0.172,0.931 L0.166,0.929 L0.16,0.926 L0.154,0.923 L0.148,0.921 L0.143,0.918 L0.137,0.914 L0.132,0.911 L0.126,0.908 L0.121,0.904 L0.115,0.9 L0.11,0.896 L0.105,0.892 L0.1,0.888 L0.095,0.884 L0.09,0.879 L0.085,0.875 L0.081,0.87 L0.076,0.865 L0.072,0.86 L0.067,0.855 L0.063,0.85 L0.059,0.845 L0.055,0.839 L0.051,0.834 L0.048,0.828 L0.044,0.822 L0.041,0.817 L0.037,0.811 L0.034,0.805 L0.031,0.798 L0.029,0.792 L0.026,0.786 L0.023,0.779 L0.021,0.773 L0.019,0.766 L0.016,0.76 L0.014,0.753 L0.013,0.746 L0.011,0.74 L0.009,0.733 L0.008,0.726 L0.007,0.719 L0.006,0.712 L0.005,0.705 L0.004,0.698 L0.003,0.691 L0.003,0.684 L0.002,0.677 L0.002,0.67 L0.002,0.663 L0.002,0.656 L0.002,0.649 L0.002,0.642 L0.002,0.635 L0.002,0.628 L0.003,0.622 L0.004,0.615 L0.004,0.608 L0.005,0.601 L0.006,0.594 L0.007,0.587 L0.008,0.581 L0.009,0.574 L0.01,0.567 L0.012,0.561 L0.013,0.554 L0.014,0.547 L0.016,0.541 L0.017,0.535 L0.019,0.528 L0.021,0.522 L0.022,0.516 L0.024,0.509 L0.026,0.503 L0.028,0.497 L0.03,0.491 L0.031,0.485 L0.033,0.479 L0.035,0.473 L0.037,0.467 L0.039,0.462 L0.041,0.456 L0.043,0.45 L0.045,0.445 L0.047,0.439 L0.048,0.433 L0.05,0.428 L0.052,0.422 L0.054,0.417 L0.056,0.411 L0.058,0.406 L0.059,0.401 L0.061,0.395 L0.063,0.39 L0.065,0.385 L0.066,0.38 L0.068,0.374 L0.07,0.369 L0.071,0.364 L0.073,0.359 L0.075,0.354 L0.076,0.348 L0.078,0.343 L0.079,0.338 L0.081,0.333 L0.082,0.328 L0.083,0.323 L0.085,0.318 L0.086,0.312 L0.088,0.307 L0.089,0.302 L0.09,0.297 L0.092,0.292 L0.093,0.286 L0.094,0.281 L0.095,0.276 L0.097,0.271 L0.098,0.265 L0.099,0.26 L0.101,0.255 L0.102,0.249 L0.103,0.244 L0.104,0.239 L0.106,0.233 L0.107,0.228 L0.108,0.222 L0.11,0.217 L0.111,0.212 L0.113,0.206 L0.114,0.201 L0.116,0.195 L0.117,0.19 L0.119,0.184 L0.121,0.179 L0.122,0.173 L0.124,0.168 L0.126,0.162 L0.128,0.157 L0.13,0.151 L0.132,0.146 L0.134,0.141 L0.136,0.135 L0.138,0.13 L0.141,0.124 L0.143,0.119 L0.145,0.114 L0.148,0.109 L0.151,0.104 L0.153,0.098 L0.156,0.093 L0.159,0.089 L0.162,0.084 L0.166,0.079 L0.169,0.074 L0.172,0.07 L0.176,0.065 L0.179,0.061 L0.183,0.057 L0.187,0.052 L0.191,0.048 L0.195,0.045 L0.199,0.041 L0.203,0.037 L0.208,0.034 L0.212,0.031 L0.216,0.027 L0.221,0.025 L0.226,0.022 L0.231,0.019 L0.236,0.017 L0.24,0.014 L0.246,0.012 L0.251,0.01 L0.256,0.009 L0.261,0.007 L0.266,0.006 L0.272,0.005 L0.277,0.004 L0.283,0.003 L0.288,0.002 L0.294,0.002 L0.299,0.002 L0.305,0.002 L0.31,0.002 L0.316,0.002 L0.322,0.003 L0.327,0.003 L0.333,0.004 L0.338,0.005 L0.344,0.006 L0.35,0.008 L0.355,0.009 L0.361,0.011 L0.366,0.012 L0.372,0.014 L0.377,0.016 L0.382,0.018 L0.388,0.02 L0.393,0.022 L0.398,0.025 L0.403,0.027 L0.408,0.03 L0.413,0.032 L0.418,0.035 L0.423,0.037 L0.428,0.04 L0.433,0.043 L0.437,0.045 L0.442,0.048 L0.447,0.051 L0.451,0.054 L0.455,0.056 L0.46,0.059 L0.464,0.061 L0.468,0.064 L0.472,0.067 L0.476,0.069 L0.48,0.071 L0.484,0.074 L0.488,0.076 L0.492,0.078 L0.496,0.08 L0.499,0.082 L0.503,0.084" />
</svg>
