<svg width="0" height="0">
<path fill-rule="evenodd" clip-rule="evenodd" d="M0.998,0.595 L0.999,0.601 L0.999,0.607 L1,0.613 L1,0.619 L1,0.625 L1,0.631 L1,0.637 L0.999,0.643 L0.999,0.649 L0.998,0.655 L0.998,0.661 L0.997,0.667 L0.996,0.673 L0.995,0.679 L0.994,0.685 L0.992,0.691 L0.991,0.697 L0.99,0.703 L0.988,0.709 L0.986,0.714 L0.984,0.72 L0.982,0.726 L0.98,0.732 L0.978,0.737 L0.976,0.743 L0.974,0.749 L0.971,0.754 L0.969,0.76 L0.966,0.765 L0.964,0.771 L0.961,0.776 L0.958,0.782 L0.955,0.787 L0.952,0.792 L0.949,0.798 L0.946,0.803 L0.943,0.808 L0.939,0.813 L0.936,0.818 L0.932,0.823 L0.929,0.828 L0.925,0.833 L0.922,0.838 L0.918,0.843 L0.914,0.848 L0.91,0.852 L0.906,0.857 L0.902,0.861 L0.898,0.866 L0.894,0.87 L0.89,0.875 L0.885,0.879 L0.881,0.883 L0.877,0.888 L0.872,0.892 L0.868,0.896 L0.863,0.9 L0.858,0.904 L0.854,0.907 L0.849,0.911 L0.844,0.915 L0.839,0.918 L0.834,0.922 L0.829,0.925 L0.824,0.929 L0.819,0.932 L0.814,0.935 L0.809,0.938 L0.804,0.942 L0.798,0.945 L0.793,0.947 L0.788,0.95 L0.782,0.953 L0.777,0.956 L0.771,0.958 L0.766,0.961 L0.76,0.963 L0.755,0.965 L0.749,0.968 L0.744,0.97 L0.738,0.972 L0.733,0.974 L0.727,0.976 L0.721,0.978 L0.716,0.98 L0.71,0.981 L0.704,0.983 L0.698,0.985 L0.693,0.986 L0.687,0.987 L0.681,0.989 L0.676,0.99 L0.67,0.991 L0.664,0.993 L0.658,0.994 L0.653,0.995 L0.647,0.995 L0.641,0.996 L0.635,0.997 L0.629,0.998 L0.624,0.998 L0.618,0.999 L0.612,0.999 L0.606,1 L0.601,1 L0.595,1 L0.589,1 L0.583,1 L0.578,1 L0.572,1 L0.566,1 L0.561,0.999 L0.555,0.999 L0.549,0.999 L0.544,0.998 L0.538,0.997 L0.532,0.997 L0.527,0.996 L0.521,0.995 L0.516,0.994 L0.51,0.993 L0.505,0.992 L0.499,0.991 L0.494,0.99 L0.489,0.989 L0.483,0.988 L0.478,0.986 L0.473,0.985 L0.467,0.984 L0.462,0.982 L0.457,0.981 L0.452,0.979 L0.447,0.978 L0.441,0.976 L0.436,0.975 L0.431,0.973 L0.426,0.972 L0.421,0.97 L0.416,0.969 L0.411,0.967 L0.406,0.965 L0.401,0.964 L0.396,0.962 L0.391,0.96 L0.386,0.959 L0.381,0.957 L0.376,0.955 L0.371,0.954 L0.366,0.952 L0.361,0.95 L0.356,0.948 L0.351,0.947 L0.346,0.945 L0.341,0.943 L0.336,0.941 L0.331,0.94 L0.326,0.938 L0.321,0.936 L0.316,0.934 L0.311,0.932 L0.306,0.93 L0.301,0.929 L0.295,0.927 L0.29,0.925 L0.285,0.923 L0.28,0.921 L0.275,0.919 L0.27,0.917 L0.265,0.914 L0.259,0.912 L0.254,0.91 L0.249,0.908 L0.244,0.906 L0.238,0.903 L0.233,0.901 L0.228,0.899 L0.223,0.896 L0.217,0.893 L0.212,0.891 L0.207,0.888 L0.202,0.886 L0.196,0.883 L0.191,0.88 L0.186,0.877 L0.181,0.874 L0.175,0.871 L0.17,0.868 L0.165,0.865 L0.16,0.861 L0.155,0.858 L0.15,0.855 L0.145,0.851 L0.14,0.847 L0.135,0.844 L0.13,0.84 L0.125,0.836 L0.12,0.832 L0.115,0.828 L0.11,0.824 L0.105,0.82 L0.101,0.816 L0.096,0.811 L0.092,0.807 L0.087,0.802 L0.083,0.798 L0.078,0.793 L0.074,0.788 L0.07,0.783 L0.066,0.778 L0.062,0.773 L0.058,0.768 L0.054,0.763 L0.051,0.758 L0.047,0.752 L0.044,0.747 L0.04,0.742 L0.037,0.736 L0.034,0.73 L0.031,0.725 L0.028,0.719 L0.025,0.713 L0.023,0.707 L0.02,0.701 L0.018,0.695 L0.016,0.689 L0.014,0.683 L0.012,0.677 L0.01,0.671 L0.008,0.665 L0.007,0.658 L0.006,0.652 L0.004,0.646 L0.003,0.639 L0.003,0.633 L0.002,0.627 L0.001,0.62 L0.001,0.614 L0,0.608 L0,0.601 L0,0.595 L0,0.588 L0,0.582 L0.001,0.575 L0.001,0.569 L0.002,0.563 L0.002,0.556 L0.003,0.55 L0.004,0.544 L0.005,0.537 L0.006,0.531 L0.007,0.525 L0.009,0.518 L0.01,0.512 L0.012,0.506 L0.013,0.5 L0.015,0.493 L0.016,0.487 L0.018,0.481 L0.02,0.475 L0.022,0.469 L0.023,0.463 L0.025,0.457 L0.027,0.45 L0.029,0.444 L0.031,0.438 L0.033,0.432 L0.035,0.426 L0.037,0.42 L0.039,0.414 L0.041,0.408 L0.043,0.401 L0.045,0.395 L0.047,0.389 L0.049,0.383 L0.05,0.377 L0.052,0.37 L0.054,0.364 L0.056,0.358 L0.058,0.351 L0.06,0.345 L0.062,0.338 L0.064,0.332 L0.066,0.325 L0.068,0.318 L0.07,0.312 L0.072,0.305 L0.074,0.298 L0.077,0.291 L0.079,0.285 L0.081,0.278 L0.083,0.271 L0.086,0.264 L0.088,0.257 L0.091,0.25 L0.093,0.243 L0.096,0.236 L0.099,0.228 L0.102,0.221 L0.105,0.214 L0.108,0.207 L0.111,0.2 L0.115,0.193 L0.118,0.186 L0.122,0.179 L0.126,0.172 L0.13,0.165 L0.134,0.158 L0.138,0.151 L0.142,0.144 L0.147,0.137 L0.151,0.131 L0.156,0.124 L0.161,0.118 L0.166,0.111 L0.172,0.105 L0.177,0.099 L0.183,0.093 L0.188,0.087 L0.194,0.081 L0.2,0.076 L0.207,0.07 L0.213,0.065 L0.22,0.06 L0.226,0.055 L0.233,0.05 L0.24,0.045 L0.247,0.041 L0.254,0.037 L0.262,0.033 L0.269,0.029 L0.277,0.025 L0.284,0.022 L0.292,0.019 L0.3,0.016 L0.308,0.013 L0.316,0.011 L0.324,0.009 L0.333,0.007 L0.341,0.005 L0.349,0.004 L0.358,0.002 L0.366,0.001 L0.374,0.001 L0.383,0 L0.391,0 L0.4,0 L0.408,0.001 L0.417,0.001 L0.425,0.002 L0.434,0.003 L0.442,0.005 L0.451,0.006 L0.459,0.008 L0.467,0.01 L0.476,0.012 L0.484,0.015 L0.492,0.017 L0.5,0.02 L0.508,0.023 L0.516,0.027 L0.524,0.03 L0.531,0.034 L0.539,0.038 L0.546,0.042 L0.554,0.046 L0.561,0.05 L0.568,0.055 L0.575,0.06 L0.582,0.064 L0.589,0.069 L0.595,0.074 L0.602,0.079 L0.608,0.085 L0.614,0.09 L0.62,0.095 L0.626,0.101 L0.632,0.106 L0.638,0.112 L0.643,0.117 L0.649,0.123 L0.654,0.129 L0.659,0.134 L0.664,0.14 L0.669,0.146 L0.674,0.151 L0.679,0.157 L0.684,0.163 L0.688,0.168 L0.692,0.174 L0.697,0.18 L0.701,0.185 L0.705,0.191 L0.709,0.196 L0.713,0.201 L0.717,0.207 L0.721,0.212 L0.725,0.217 L0.729,0.222 L0.732,0.227 L0.736,0.232 L0.74,0.237 L0.743,0.242 L0.747,0.246 L0.751,0.251 L0.754,0.256 L0.758,0.26 L0.761,0.265 L0.765,0.269 L0.768,0.273 L0.772,0.277 L0.776,0.282 L0.779,0.286 L0.783,0.29 L0.786,0.294 L0.79,0.298 L0.794,0.302 L0.797,0.305 L0.801,0.309 L0.805,0.313 L0.809,0.317 L0.812,0.32 L0.816,0.324 L0.82,0.327 L0.824,0.331 L0.828,0.335 L0.832,0.338 L0.836,0.342 L0.84,0.345 L0.844,0.349 L0.848,0.353 L0.852,0.356 L0.856,0.36 L0.86,0.364 L0.864,0.367 L0.868,0.371 L0.872,0.375 L0.876,0.379 L0.88,0.382 L0.884,0.386 L0.888,0.39 L0.892,0.394 L0.896,0.398 L0.9,0.402 L0.904,0.407 L0.908,0.411 L0.912,0.415 L0.916,0.419 L0.92,0.424 L0.924,0.428 L0.927,0.433 L0.931,0.437 L0.935,0.442 L0.938,0.447 L0.942,0.451 L0.945,0.456 L0.948,0.461 L0.952,0.466 L0.955,0.471 L0.958,0.476 L0.961,0.481 L0.964,0.487 L0.966,0.492 L0.969,0.497 L0.972,0.503 L0.974,0.508 L0.977,0.513 L0.979,0.519 L0.981,0.525 L0.983,0.53 L0.985,0.536 L0.987,0.542 L0.989,0.547 L0.99,0.553 L0.992,0.559 L0.993,0.565 L0.995,0.571 L0.996,0.577 L0.997,0.583 L0.998,0.589 L0.998,0.595"/>
</svg>
