<svg width="0" height="0">
<path fill-rule="evenodd" clip-rule="evenodd" d="M0.935,0.501 V0.501 L0.938,0.507 L0.94,0.514 L0.943,0.521 L0.946,0.527 L0.949,0.534 L0.952,0.541 L0.955,0.548 L0.958,0.556 L0.961,0.563 L0.964,0.571 L0.966,0.578 L0.969,0.586 L0.972,0.594 L0.974,0.602 L0.977,0.61 L0.979,0.618 L0.982,0.626 L0.984,0.635 L0.986,0.643 L0.988,0.652 L0.99,0.661 L0.992,0.669 L0.993,0.678 L0.995,0.687 L0.996,0.696 L0.997,0.705 L0.998,0.715 L0.999,0.724 L1,0.733 L1,0.742 L1,0.752 L1,0.761 L1,0.77 L0.999,0.78 L0.998,0.789 L0.997,0.798 L0.996,0.808 L0.994,0.817 L0.992,0.826 L0.99,0.835 L0.988,0.844 L0.985,0.852 L0.982,0.861 L0.979,0.87 L0.975,0.878 L0.971,0.886 L0.967,0.894 L0.963,0.902 L0.958,0.909 L0.953,0.916 L0.948,0.923 L0.943,0.93 L0.937,0.936 L0.931,0.943 L0.925,0.948 L0.918,0.954 L0.911,0.959 L0.905,0.964 L0.898,0.969 L0.89,0.973 L0.883,0.977 L0.875,0.981 L0.868,0.984 L0.86,0.987 L0.852,0.99 L0.844,0.992 L0.835,0.995 L0.827,0.996 L0.819,0.998 L0.81,0.999 L0.802,1 L0.794,1 L0.785,1 L0.777,1 L0.768,1 L0.76,0.999 L0.751,0.998 L0.743,0.997 L0.735,0.996 L0.726,0.994 L0.718,0.992 L0.71,0.99 L0.702,0.988 L0.694,0.986 L0.686,0.983 L0.679,0.981 L0.671,0.978 L0.663,0.975 L0.656,0.972 L0.649,0.969 L0.642,0.966 L0.634,0.963 L0.628,0.96 L0.621,0.957 L0.614,0.954 L0.608,0.951 L0.601,0.948 L0.595,0.946 L0.589,0.943 L0.582,0.94 L0.576,0.938 L0.571,0.935 L0.565,0.933 L0.559,0.931 L0.553,0.929 L0.548,0.927 L0.542,0.926 L0.536,0.924 L0.531,0.923 L0.525,0.922 L0.52,0.922 L0.514,0.921 L0.509,0.921 L0.503,0.921 L0.498,0.921 L0.492,0.921 L0.486,0.921 L0.481,0.922 L0.475,0.923 L0.469,0.924 L0.463,0.925 L0.457,0.926 L0.451,0.927 L0.445,0.928 L0.438,0.93 L0.432,0.931 L0.426,0.932 L0.419,0.934 L0.412,0.935 L0.405,0.936 L0.399,0.938 L0.392,0.939 L0.385,0.94 L0.377,0.941 L0.37,0.942 L0.363,0.943 L0.356,0.944 L0.348,0.944 L0.341,0.945 L0.333,0.945 L0.326,0.945 L0.318,0.945 L0.311,0.945 L0.303,0.944 L0.296,0.943 L0.288,0.942 L0.28,0.941 L0.273,0.939 L0.266,0.938 L0.258,0.936 L0.251,0.933 L0.244,0.931 L0.236,0.928 L0.229,0.925 L0.222,0.922 L0.215,0.919 L0.208,0.915 L0.201,0.911 L0.195,0.907 L0.188,0.903 L0.181,0.899 L0.175,0.894 L0.168,0.89 L0.162,0.885 L0.156,0.88 L0.149,0.875 L0.143,0.869 L0.137,0.864 L0.131,0.859 L0.125,0.853 L0.119,0.847 L0.113,0.841 L0.107,0.835 L0.101,0.829 L0.096,0.823 L0.09,0.817 L0.085,0.81 L0.079,0.803 L0.074,0.797 L0.069,0.79 L0.064,0.783 L0.059,0.776 L0.054,0.768 L0.049,0.761 L0.045,0.753 L0.04,0.746 L0.036,0.738 L0.032,0.73 L0.028,0.722 L0.025,0.714 L0.021,0.706 L0.018,0.697 L0.015,0.689 L0.013,0.68 L0.01,0.671 L0.008,0.663 L0.006,0.654 L0.004,0.645 L0.003,0.636 L0.002,0.627 L0.001,0.618 L0,0.609 L0,0.6 L0,0.591 L0,0.581 L0.001,0.572 L0.002,0.563 L0.003,0.554 L0.004,0.545 L0.005,0.536 L0.007,0.527 L0.009,0.518 L0.011,0.51 L0.014,0.501 L0.017,0.492 L0.019,0.484 L0.023,0.475 L0.026,0.467 L0.029,0.459 L0.033,0.45 L0.037,0.442 L0.041,0.435 L0.045,0.427 L0.049,0.419 L0.053,0.412 L0.058,0.404 L0.062,0.397 L0.067,0.39 L0.072,0.383 L0.076,0.376 L0.081,0.369 L0.086,0.363 L0.091,0.356 L0.096,0.35 L0.101,0.344 L0.106,0.337 L0.111,0.331 L0.116,0.325 L0.121,0.32 L0.126,0.314 L0.131,0.308 L0.136,0.303 L0.141,0.297 L0.146,0.292 L0.151,0.287 L0.156,0.281 L0.161,0.276 L0.165,0.271 L0.17,0.266 L0.175,0.261 L0.179,0.256 L0.184,0.25 L0.188,0.245 L0.192,0.24 L0.197,0.235 L0.201,0.23 L0.205,0.225 L0.209,0.22 L0.213,0.215 L0.218,0.21 L0.222,0.205 L0.226,0.2 L0.23,0.195 L0.234,0.19 L0.238,0.185 L0.243,0.18 L0.247,0.175 L0.251,0.17 L0.255,0.165 L0.26,0.161 L0.264,0.156 L0.269,0.152 L0.274,0.148 L0.279,0.143 L0.284,0.139 L0.289,0.136 L0.294,0.132 L0.299,0.128 L0.304,0.125 L0.31,0.122 L0.315,0.119 L0.321,0.116 L0.327,0.114 L0.332,0.112 L0.338,0.11 L0.344,0.108 L0.35,0.107 L0.356,0.105 L0.362,0.104 L0.368,0.104 L0.375,0.103 L0.381,0.103 L0.387,0.103 L0.393,0.103 L0.4,0.103 L0.406,0.104 L0.412,0.105 L0.418,0.105 L0.424,0.106 L0.43,0.107 L0.436,0.109 L0.442,0.11 L0.448,0.111 L0.454,0.112 L0.459,0.113 L0.465,0.114 L0.47,0.115 L0.476,0.116 L0.481,0.117 L0.486,0.117 L0.491,0.118 L0.497,0.118 L0.502,0.118 L0.507,0.117 L0.512,0.117 L0.517,0.116 L0.522,0.115 L0.527,0.113 L0.532,0.112 L0.537,0.109 L0.542,0.107 L0.547,0.104 L0.553,0.101 L0.558,0.098 L0.563,0.095 L0.569,0.091 L0.575,0.087 L0.581,0.083 L0.587,0.079 L0.593,0.074 L0.599,0.069 L0.605,0.065 L0.612,0.06 L0.619,0.055 L0.626,0.05 L0.633,0.046 L0.64,0.041 L0.648,0.036 L0.655,0.032 L0.663,0.028 L0.671,0.023 L0.679,0.02 L0.687,0.016 L0.695,0.013 L0.703,0.01 L0.711,0.007 L0.72,0.005 L0.728,0.003 L0.736,0.002 L0.745,0.001 L0.753,0 L0.761,0 L0.769,0.001 L0.777,0.002 L0.784,0.003 L0.792,0.005 L0.799,0.007 L0.807,0.01 L0.814,0.014 L0.82,0.017 L0.827,0.022 L0.833,0.026 L0.839,0.031 L0.845,0.037 L0.85,0.043 L0.855,0.049 L0.86,0.056 L0.865,0.063 L0.869,0.07 L0.873,0.077 L0.877,0.085 L0.88,0.093 L0.884,0.101 L0.887,0.109 L0.889,0.118 L0.892,0.126 L0.894,0.135 L0.896,0.143 L0.898,0.152 L0.899,0.161 L0.9,0.17 L0.902,0.178 L0.902,0.187 L0.903,0.196 L0.904,0.204 L0.905,0.213 L0.905,0.222 L0.905,0.23 L0.905,0.239 L0.906,0.247 L0.906,0.255 L0.905,0.263 L0.905,0.271 L0.905,0.279 L0.905,0.287 L0.905,0.295 L0.904,0.302 L0.904,0.31 L0.904,0.317 L0.904,0.324 L0.904,0.331 L0.903,0.338 L0.903,0.345 L0.903,0.352 L0.903,0.359 L0.903,0.365 L0.904,0.372 L0.904,0.378 L0.904,0.385 L0.905,0.391 L0.905,0.397 L0.906,0.403 L0.907,0.409 L0.908,0.415 L0.909,0.421 L0.91,0.427 L0.912,0.433 L0.913,0.439 L0.915,0.445 L0.917,0.451 L0.919,0.457 L0.921,0.463 L0.923,0.469 L0.925,0.476 L0.927,0.482 L0.93,0.488 L0.932,0.494 L0.935,0.501" />
</svg>
